<?xml version="1.0" encoding="utf-8"?>
<!-- Generator: Adobe Illustrator 28.3.0, SVG Export Plug-In . SVG Version: 6.00 Build 0)  -->
<svg version="1.1" id="Layer_1" xmlns="http://www.w3.org/2000/svg" xmlns:xlink="http://www.w3.org/1999/xlink" x="0px" y="0px"
	 viewBox="0 0 612 792" style="enable-background:new 0 0 612 792;" xml:space="preserve">
<style type="text/css">
	.st0{fill:#F1ECE1;}
	.st1{fill:#FFFEF9;}
	.st2{fill:#E0CEBB;}
	.st3{fill:#664838;}
	.st4{fill:#654735;}
	.st5{fill:#664939;}
	.st6{fill:#654936;}
	.st7{fill:#684937;}
	.st8{fill:#644937;}
	.st9{fill:#654938;}
	.st10{fill:#664936;}
	.st11{fill:#ECE3D6;}
</style>
<g>
	<g>
		<path class="st0" d="M-205.8,395.8c0-169.1,0-338.3-0.1-507.4c0-3.7,0.8-4.6,4.6-4.6c338.3,0.1,676.5,0.1,1014.8,0
			c3.7,0,4.6,0.8,4.6,4.6c-0.1,338.3-0.1,676.5,0,1014.8c0,3.7-0.8,4.6-4.6,4.6c-338.3-0.1-676.5-0.1-1014.8,0
			c-3.7,0-4.6-0.8-4.6-4.6C-205.8,734.1-205.8,565-205.8,395.8z"/>
		<path class="st1" d="M173.1,499.8c0-11.4,0-22.7,0-34.1c-1.5-3.6,0.3-7.2,0.3-10.8c-0.1-33.4,0.1-66.8-0.1-100.3
			c0-2-0.6-4,0.8-5.8c1-5.7-1.8-11.2-1.1-17c0.5-3.6,1.1-6.8,4.2-9.1c1.6-1.3,3.5-0.6,5.3-0.6c8.3,0.2,11.9-3.3,12-11.6
			c0.1-7.5,0-15,0-22.5c0-25.4,10.7-44.8,32.1-58.5c5.5-3.5,11.1-6.8,16.2-10.8c7.7-5.9,13.4-13.5,17.2-22.3
			c5.2-12.1,4.4-24-1.6-35.7c-4.4-8.6-3.8-9.5,5.8-9.5c10,0,20,0,30,0c2.3,0,4.7-0.3,6.8,1c1.4,1.5,0.7,3.1,0,4.6
			c-10,23.6-6,45.9,6.7,67.3c5.4,9.2,12.1,17.6,18.5,26.1c8.2,10.9,16.6,21.7,23.5,33.5c12,20.6,19.6,42.5,21.6,66.4
			c-0.8,10.3-0.3,20.6-0.4,30.9c-0.1,24.1,0,48.2,0,72.3c0,3.7,0.1,7.3,0.9,10.9c-2.4,33.2-15,60.9-44.1,79.1
			c-14.9,9.4-31.5,12-49,10.4c-20.7-1.8-37.6-11.4-52.5-25.3c-6.8-6.3-13.5-12.8-21.4-17.9c-7.3-4.7-15-7.8-23.7-8.6
			C178.3,501.9,175.4,501.8,173.1,499.8z"/>
		<path class="st2" d="M370.1,348.9c-1.9-8.1-2.6-16.3-4.9-24.3c-5.3-18.7-13.5-35.8-24.5-51.8c-11.8-17.1-25.7-32.6-36.1-50.7
			c-11.3-20-14-40.8-6.5-62.7c0.8-2.2,2.7-3.8,2.9-6.3c1.4-1.9,3.5-1.7,5.5-1.7c9.3-0.1,18.7-0.1,28,0c6.2,0.1,7.2,1.6,4.3,6.8
			c-13,22.7-5.2,49.1,17.5,63.3c4.9,3.1,10,6,14.8,9.2c20.1,13.7,30.2,32.7,30.5,56.9c0.1,7.5,0,15,0,22.5c0,4.6,0.8,8.9,5.3,11
			c4.6,2.2,9.1,1.4,13-2c0.9-0.7,1.7-1.6,3.1-1.3c0,14.4,0.1,28.9,0.1,43.3c1.2,1.9,0,3.5-0.7,5.2c-6.5,16.8-2.1,32.1,12.3,42.9
			c1.5,1.1,3.1,2,3.6,3.9c0.9,6.1-1.9,11.4-3.8,16.8c-0.9,2.7-2.8,4.3-4.9,5.9c-1.7,1.3-3.2,2.8-4.6,4.5c-3.4,4.2-4.8,8.6-2,13.7
			c0.7,1.3,1.4,2.6,1,4.2c-1.5,9.9-0.3,19.9-1.3,29.8c-1.8,0-3-1.3-4.3-2.3c-3.6-2.6-7.3-3-11.3-1.1c-4.1,1.9-5.5,5.4-5.5,9.8
			c0,11.3,0,22.7,0,34c-0.1,29.7-22.8,52.7-52.5,52.8c-34.5,0.1-69,0.1-103.5,0c-25.9-0.1-47.3-19.3-50.4-45
			c-0.3-2.8-0.7-5.6-0.9-8.4c-0.5-8.5-7.1-12.6-15.1-9.6c-1.7,0.6-3.1,2.1-5.1,1.5c-2.3-4.5-0.6-9.4-1.1-14.1c-0.2-2,0-4,0-6
			c17.6,0.3,32.2,7.5,45,19.4c9.3,8.7,18.4,17.6,29.7,23.9c10.5,5.9,21.8,8.8,33.6,9.6c15,1.1,29.5-1.3,42.7-8.9
			c14.3-8.3,25.9-19.4,33.7-34.3c6.3-12.1,10.5-24.6,11.4-38.3c0.1-1.7,1.1-3.4,1.7-5.1c1.6-1.2,3.2-0.3,4.8,0.1
			c9.8,2,13.6-0.9,13.6-10.6c0-32.9,0-65.8,0-98.7c0-9.2-5.3-12.7-14.1-9.4C373.6,348.1,372.1,349.4,370.1,348.9z"/>
		<path class="st3" d="M423.1,317.8c-4,5.4-9.9,7.7-15.6,5.8c-4.7-1.5-7.2-6.4-7.4-13.4c-0.2-11.1,1-22.3-0.8-33.4
			c-3.1-19.3-13.1-34.2-29.1-45.1c-8.9-6-18.9-10.5-26.4-18.6c-13.8-14.8-16.9-36.1-7.2-54c1-1.9,2-3.7,3.3-6.2
			c-13.3,0-26.1,0-38.8,0c-14.6,0-29.3,0-44.2,0c1.6,5.7,5.1,10.6,6.7,16.3c3.1,11.5,0.9,22-4.4,32.5c-7.1,14.3-20.1,21.6-32.6,29.7
			c-19.8,12.9-30.2,30.9-30.4,54.6c-0.1,7.7,0,15.3,0,23c0,12.5-7.1,17.6-19,13.6c-3.8-3.1-4.7-7.2-4.6-12c0.3-9.8,0-19.7,0.4-29.5
			c0.9-26,12.7-46.7,31.9-63.5c7.1-6.2,15.4-10.4,23.2-15.4c6.6-4.2,11.4-9.7,13.2-17.8c1.5-6.6-0.1-12.3-3.9-17.3
			c-4.5-5.9-5.7-12.2-6-19.5c-0.4-11.1,8-17.8,17.8-17.8c32.7-0.3,65.3-0.2,98-0.1c10.4,0.1,17.6,7.8,17.7,18.2
			c0.1,5.7-0.5,11.2-4.5,15.9c-13,15.4-3.9,31.8,8.6,39c10.7,6.2,21.2,12.5,29.7,21.6c16.2,17.4,25.3,37.5,24.5,61.7
			C423,296.8,423.1,307.3,423.1,317.8z"/>
		<path class="st4" d="M174.2,519.8c4.5-4.5,9.8-5.5,15.5-3.1c5.9,2.6,6.6,7.7,6.7,13.7c0.2,27.5,22.1,48.7,47.6,49.2
			c35.5,0.6,70.9,0.3,106.4,0c30.5-0.2,50.5-26.4,49.6-50.4c-0.4-11.3,0-22.6,0-34c0-7.7,1.9-10.7,7.9-12.6c6.1-2,10.6-0.3,14.9,5.5
			c0.3,18.3,2.3,36.8-0.9,54.8c-5.2,29.8-23.8,48.6-52.4,57.8c-7.3,2.4-15,2.8-22.6,2.9c-33,0.1-66,0.1-98.9,0
			c-37.9-0.1-67.4-24.1-74.5-61.1C172.1,535.2,171.7,527.3,174.2,519.8z"/>
		<path class="st5" d="M109.6,390.1c-4.5,7-8.9,13.7-13.2,20.6c-3.7,5.9-7.2,11.9-11.2,17.7c-4.3,6.2-9.2,6.2-13.3-0.2
			c-6.8-10.4-13.3-21.1-20-31.6c-1.1-1.8-2.1-3.8-4.6-5.6c0,23,0,45.4,0,67.9c0,6.8-2.5,9.2-9.3,9.4c-2.3,0.1-4.7-0.2-7-0.3
			c-3.6-0.3-5.3-2.5-5.8-5.8c-0.3-2-0.3-4-0.3-6c0-34,0-68,0-102c0-6.2,2.4-8.4,8.7-9.2c8.2-1.1,13.8,1.5,18.1,8.9
			c8.6,14.6,17.9,28.7,27.3,43.5c6.6-10.5,12.8-20.7,19.2-30.7c3.5-5.5,6.9-11,10.6-16.3c3.7-5.3,15.3-7.6,20.8-4.3
			c2.9,1.8,4.2,4.6,4.2,8c0,34.7,0,69.3-0.1,104c0,3.8-0.5,8.2-4.4,9.2c-5.1,1.4-10.9,2.6-15.9-0.8c-2.6-1.8-2.5-4.9-2.5-7.7
			c-0.1-21-0.1-42-0.3-63C110.7,394,111.3,392.1,109.6,390.1z"/>
		<path class="st6" d="M573,407.1c0,17,0,34,0,50.9c0,7.4-2.2,9.7-9.6,10.3c-1.5,0.1-3,0.2-4.5,0.1c-6.5-0.4-8.8-2.9-8.8-9.4
			c0-11,0-22,0-33c0-6.1-1.6-7.8-7.6-7.8c-17.5,0.1-16.2-2.1-16.3,15.8c0,8.7,0,17.3-0.1,26c-0.1,5.7-2,7.7-7.8,8.1
			c-13.1,0.9-14.7-0.5-14.7-13.7c0-33,0-65.9-0.1-98.9c0-4.2,0.6-8,5.2-9.7c4.9-1.9,12.8-0.9,15.6,2c2.1,2.1,1.9,4.8,1.9,7.5
			c0,11-0.1,22,0,33c0,7.1,0.7,7.8,7.6,7.8c3.2,0,6.3,0,9.5,0c6,0,6.7-0.7,6.7-6.5c0.1-11.7,0-23.3,0.1-35c0-7.1,3.3-9.6,12-9.5
			c7.5,0,10.8,3,10.8,9.8C573.1,372.1,573,389.6,573,407.1z"/>
		<path class="st7" d="M424.2,458.3c-6.6-9.1-5.1-16.1,4.9-23.6c2.9-0.8,5.1,0.9,7.3,2.4c3.5,2.3,6.8,4.8,11,5.8
			c5.5,1.4,10.6-0.7,12.8-5.2c2.4-4.8,1.2-9.3-3.7-13.1c-3.6-2.8-7.5-4.9-11.7-6.6c-2.4-1-5.2-1.6-6.4-4.3c-7.8-5.2-15-11-18.2-20.4
			c-3.8-11.2-2.2-21.8,3-32.2c13.4-19.2,35.9-20.2,50.6-11.2c11.8,7.2,9.4,13,2.4,22.9c-1.8,2.6-4.5,1.1-6.7-0.3
			c-4.5-2.9-9.3-4.9-14.9-4.7c-5.8,0.2-10,3-12,8.2c-1.9,4.8-0.4,9.4,3.4,13.2c5,5,11.5,7.2,17.6,10.2c10.9,5.3,18.6,13.2,21.6,25.1
			c6,23.3-11.4,44.5-35.5,43.6C439.9,467.7,431.6,464.3,424.2,458.3z"/>
		<path class="st8" d="M174.1,348.8c0.7,2,1.1,4.1,1.1,6.3c-0.1,33.8-0.1,67.6-0.2,101.4c0,3.2-0.2,6.3-1.9,9.1
			c-5.1,3.7-10.8,3.2-16.2,1.8c-3.4-0.9-4.1-4.6-4.3-7.8c-0.2-4.5,0-9,0-13.5c0.1-29.8,0.1-59.6,0.2-89.3c0-4.5-0.5-9.2,4.9-11.3
			C163.2,343.4,170.3,344.8,174.1,348.8z"/>
		<path class="st3" d="M301.2,425c-1.2,3.2-0.8,6.2-0.9,9.2c-0.2,7.7-0.1,15.3-0.2,23c-0.1,9.5-10.5,15.2-19,10.2
			c-3-1.8-4-4.8-4-8.1c0-35.3,0-70.6,0.2-105.9c0-5.3,2.6-7.9,7.8-8.4c2.1-0.2,4.3-0.2,6.5-0.1c5.8,0.5,8.6,3.6,8.6,9.4
			c0,14.1,0,28.2,0,43.5c6.6-11.3,12.6-21.7,18.6-32.1c2.7-4.7,5.3-9.6,8.1-14.3c3.7-6.4,13-8.8,19.5-5.1c3.9,2.2,5.1,6.3,2.5,10.7
			c-4.3,7.3-8.8,14.4-13.2,21.6c-4.9,7.9-9.6,15.9-14.7,23.6c-2.7,4-2.9,7.1,0,11.2c9.1,12.7,17.9,25.6,26.7,38.5
			c1.2,1.8,2.3,3.7,3,5.7c1.7,5-1.6,9.9-6.9,10.3c-2.6,0.2-5.3-0.1-8,0.1c-3.4,0.3-5.5-1.3-7.4-4c-7.8-11.7-15.8-23.4-23.7-35.1
			C303.8,427.5,303.3,425.8,301.2,425z"/>
		<path class="st9" d="M194.1,406.9c0-17.1,0-34.3,0-51.4c0-4.5,0.9-8.6,5.7-9.8c5.3-1.3,10.9-2,15.6,2.1c1.9,1.6,1.8,4.1,1.8,6.5
			c-0.1,27.8-0.1,55.6-0.1,83.4c0,6.5,0.4,6.9,6.7,6.9c8.8,0,17.6-0.1,26.5-0.4c4.8-0.2,8.6,1,10.7,5.5c2.3,4.8,1.1,13-2.1,16
			c-1.9,1.9-4.3,2.2-6.9,2.2c-16.3,0-32.6,0-48.9,0c-6.4,0-8.9-2.5-8.9-9C194.1,441.5,194.1,424.2,194.1,406.9z"/>
		<path class="st10" d="M370.1,348.9c4.2-5.1,10.1-4.7,15.5-3.7c4.6,0.9,5.6,4.8,5.6,9.3c-0.1,29.7-0.1,59.5-0.2,89.2c0,5,0,10,0,15
			c0,6.3-2.5,9.1-8.7,9.9c-4.1,0.5-7.9-0.4-11.5-2.4c-1.7-2.3-1.9-4.9-1.9-7.6c0-34.4,0-68.9,0-103.3
			C369.1,353,369.5,351,370.1,348.9z"/>
		<path class="st11" d="M438.3,413.7c6.4,3,13.2,5.3,18.9,9.7c4.9,3.8,6.7,8.1,5.3,12.8c-1.9,6.5-8.4,10-15.3,8.3
			c-4.8-1.2-8.7-4-12.6-6.8c-1.8-1.3-3.6-2.3-5.6-3c2.3-1.5,4.6-2.9,4.1-6.5c-0.2-1.7,1.4-3.2,2.5-4.6c1.5-2,2.6-4.3,0.8-6.6
			C434.6,414.3,437.5,414.6,438.3,413.7z"/>
	</g>
</g>
</svg>
