<?xml version="1.0" encoding="utf-8"?>
<!-- Generator: Adobe Illustrator 28.3.0, SVG Export Plug-In . SVG Version: 6.00 Build 0)  -->
<svg version="1.1" id="Layer_1" xmlns="http://www.w3.org/2000/svg" xmlns:xlink="http://www.w3.org/1999/xlink" x="0px" y="0px"
	 viewBox="0 0 612 792" style="enable-background:new 0 0 612 792;" xml:space="preserve">
<style type="text/css">
	.st0{fill:#F1ECE1;}
	.st1{fill:#FFFEF9;}
	.st2{fill:#E0CEBB;}
	.st3{fill:#664838;}
	.st4{fill:#654735;}
	.st5{enable-background:new    ;}
	.st6{fill:#644736;}
</style>
<g id="Layer_1_00000116201905224205353050000002441034135190935956_">
	<path class="st0" d="M-205.8,395.8c0-169.1,0-338.3-0.1-507.4c0-3.7,0.8-4.6,4.6-4.6c338.3,0.1,676.5,0.1,1014.8,0
		c3.7,0,4.6,0.8,4.6,4.6c-0.1,338.3-0.1,676.5,0,1014.8c0,3.7-0.8,4.6-4.6,4.6c-338.3-0.1-676.5-0.1-1014.8,0
		c-3.7,0-4.6-0.8-4.6-4.6C-205.8,734.1-205.8,565-205.8,395.8z"/>
	<path class="st1" d="M173.1,499.8c0-11.4,0-22.7,0-34.1c-1.5-3.6,0.3-7.2,0.3-10.8c-0.1-33.4,0.1-66.8-0.1-100.3c0-2-0.6-4,0.8-5.8
		c1-5.7-1.8-11.2-1.1-17c0.5-3.6,1.1-6.8,4.2-9.1c1.6-1.3,3.5-0.6,5.3-0.6c8.3,0.2,11.9-3.3,12-11.6c0.1-7.5,0-15,0-22.5
		c0-25.4,10.7-44.8,32.1-58.5c5.5-3.5,11.1-6.8,16.2-10.8c7.7-5.9,13.4-13.5,17.2-22.3c5.2-12.1,4.4-24-1.6-35.7
		c-4.4-8.6-3.8-9.5,5.8-9.5c10,0,20,0,30,0c2.3,0,4.7-0.3,6.8,1c1.4,1.5,0.7,3.1,0,4.6c-10,23.6-6,45.9,6.7,67.3
		c5.4,9.2,12.1,17.6,18.5,26.1c8.2,10.9,16.6,21.7,23.5,33.5c12,20.6,19.6,42.5,21.6,66.4c-0.8,10.3-0.3,20.6-0.4,30.9
		c-0.1,24.1,0,48.2,0,72.3c0,3.7,0.1,7.3,0.9,10.9c-2.4,33.2-15,60.9-44.1,79.1c-14.9,9.4-31.5,12-49,10.4
		c-20.7-1.8-37.6-11.4-52.5-25.3c-6.8-6.3-13.5-12.8-21.4-17.9c-7.3-4.7-15-7.8-23.7-8.6C178.3,501.9,175.4,501.8,173.1,499.8z"/>
	<path class="st2" d="M370.1,348.9c-1.9-8.1-2.6-16.3-4.9-24.3c-5.3-18.7-13.5-35.8-24.5-51.8c-11.8-17.1-25.7-32.6-36.1-50.7
		c-11.3-20-14-40.8-6.5-62.7c0.8-2.2,2.7-3.8,2.9-6.3c1.4-1.9,3.5-1.7,5.5-1.7c9.3-0.1,18.7-0.1,28,0c6.2,0.1,7.2,1.6,4.3,6.8
		c-13,22.7-5.2,49.1,17.5,63.3c4.9,3.1,10,6,14.8,9.2c20.1,13.7,30.2,32.7,30.5,56.9c0.1,7.5,0,15,0,22.5c0,4.6,0.8,8.9,5.3,11
		c4.6,2.2,9.1,1.4,13-2c0.9-0.7,1.7-1.6,3.1-1.3L422.7,488c-1.8,0-3-1.3-4.3-2.3c-3.6-2.6-7.3-3-11.3-1.1c-4.1,1.9-5.5,5.4-5.5,9.8
		c0,11.3,0,22.7,0,34c-0.1,29.7-22.8,52.7-52.5,52.8c-34.5,0.1-69,0.1-103.5,0c-25.9-0.1-47.3-19.3-50.4-45
		c-0.3-2.8-0.7-5.6-0.9-8.4c-0.5-8.5-7.1-12.6-15.1-9.6c-1.7,0.6-3.1,2.1-5.1,1.5c-2.3-4.5-0.6-9.4-1.1-14.1c-0.2-2,0-4,0-6
		c17.6,0.3,32.2,7.5,45,19.4c9.3,8.7,18.4,17.6,29.7,23.9c10.5,5.9,21.8,8.8,33.6,9.6c15,1.1,29.5-1.3,42.7-8.9
		c14.3-8.3,25.9-19.4,33.7-34.3c6.3-12.1,10.5-24.6,11.4-38.3L370.1,348.9z"/>
	<path class="st3" d="M423.1,317.8c-4,5.4-9.9,7.7-15.6,5.8c-4.7-1.5-7.2-6.4-7.4-13.4c-0.2-11.1,1-22.3-0.8-33.4
		c-3.1-19.3-13.1-34.2-29.1-45.1c-8.9-6-18.9-10.5-26.4-18.6c-13.8-14.8-16.9-36.1-7.2-54c1-1.9,2-3.7,3.3-6.2
		c-13.3,0-26.1,0-38.8,0c-14.6,0-29.3,0-44.2,0c1.6,5.7,5.1,10.6,6.7,16.3c3.1,11.5,0.9,22-4.4,32.5c-7.1,14.3-20.1,21.6-32.6,29.7
		c-19.8,12.9-30.2,30.9-30.4,54.6c-0.1,7.7,0,15.3,0,23c0,12.5-7.1,17.6-19,13.6c-3.8-3.1-4.7-7.2-4.6-12c0.3-9.8,0-19.7,0.4-29.5
		c0.9-26,12.7-46.7,31.9-63.5c7.1-6.2,15.4-10.4,23.2-15.4c6.6-4.2,11.4-9.7,13.2-17.8c1.5-6.6-0.1-12.3-3.9-17.3
		c-4.5-5.9-5.7-12.2-6-19.5c-0.4-11.1,8-17.8,17.8-17.8c32.7-0.3,65.3-0.2,98-0.1c10.4,0.1,17.6,7.8,17.7,18.2
		c0.1,5.7-0.5,11.2-4.5,15.9c-13,15.4-3.9,31.8,8.6,39c10.7,6.2,21.2,12.5,29.7,21.6c16.2,17.4,25.3,37.5,24.5,61.7
		C423,296.8,423.1,307.3,423.1,317.8z"/>
	<path class="st4" d="M174.2,519.8c4.5-4.5,9.8-5.5,15.5-3.1c5.9,2.6,6.6,7.7,6.7,13.7c0.2,27.5,22.1,48.7,47.6,49.2
		c35.5,0.6,70.9,0.3,106.4,0c30.5-0.2,50.5-26.4,49.6-50.4c-0.4-11.3,0-22.6,0-34c0-7.7,1.9-10.7,7.9-12.6c6.1-2,10.6-0.3,14.9,5.5
		c0.3,18.3,2.3,36.8-0.9,54.8c-5.2,29.8-23.8,48.6-52.4,57.8c-7.3,2.4-15,2.8-22.6,2.9c-33,0.1-66,0.1-98.9,0
		c-37.9-0.1-67.4-24.1-74.5-61.1C172.1,535.2,171.7,527.3,174.2,519.8z"/>
</g>
<g class="st5">
	<path class="st6" d="M39.3,467.6c-6.7,0-10.4-3.8-10.4-10.7v-99.7c0-7,3.7-10.7,10.4-10.7h3.5c5.9,0,9.8,2.7,11.9,8.5l23,60l23-60
		c2.1-5.8,6-8.5,11.9-8.5h3.5c6.7,0,10.4,3.8,10.4,10.7v99.7c0,7-3.7,10.7-10.4,10.7h-2.1c-6.7,0-10.4-3.8-10.4-10.7v-59.3
		l-15.6,38.8c-2.1,5.7-5.2,8.6-10.5,8.6s-8.4-2.9-10.5-8.6L51.8,398v58.9c0,7-3.7,10.7-10.4,10.7H39.3z"/>
	<path class="st6" d="M159.9,467.6c-6.7,0-10.4-3.8-10.4-10.7v-99.7c0-7,3.7-10.7,10.4-10.7h2.1c6.7,0,10.4,3.8,10.4,10.7v99.7
		c0,7-3.7,10.7-10.4,10.7H159.9z"/>
	<path class="st6" d="M205.8,467.6c-6.7,0-10.4-3.8-10.4-10.7v-99.7c0-7,3.7-10.7,10.4-10.7h2.2c6.7,0,10.4,3.8,10.4,10.7v87.7h28.4
		c6.7,0,10.4,3.8,10.4,10.7v1.3c0,7-3.7,10.7-10.4,10.7H205.8z"/>
	<path class="st6" d="M282.2,467.6c-6.7,0-10.4-3.8-10.4-10.7v-99.7c0-7,3.7-10.7,10.4-10.7h2.2c6.7,0,10.4,3.8,10.4,10.7v39.2h8.6
		l19.9-41.7c2.2-5.5,6.1-8.2,12-8.2h3.5c7.9,0,11.2,5.2,7.9,12.5L323,406.5l23.6,48.5c3.2,7.4,0.2,12.5-7.2,12.5h-4.2
		c-5.9,0-9.6-2.6-11.9-8.2l-20-42.1h-8.6v39.6c0,7-3.7,10.7-10.4,10.7H282.2z"/>
	<path class="st6" d="M375.5,467.6c-6.7,0-10.4-3.8-10.4-10.7v-99.7c0-7,3.7-10.7,10.4-10.7h2.1c6.7,0,10.4,3.8,10.4,10.7v99.7
		c0,7-3.7,10.7-10.4,10.7H375.5z"/>
	<path class="st6" d="M445.2,467.6c-20,0-35.1-12.4-38.5-30.6c-1.7-7.6,2.2-12.2,9.5-12.2h0.7c6.6,0,9,3.1,10.8,7.4
		c2.6,8.1,8.5,13.1,18.2,13.1c9.1,0,15.9-5,15.9-13.9c0-10.1-9.9-12.7-21.1-15.7c-15.2-4.1-33.1-9.1-33.1-33.8
		c0-22,14.6-35.6,37.9-35.6c19,0,33,10.8,37,29.3c1.9,7.3-1.8,12.2-9.4,12.2h-0.7c-5.7,0-8.2-2.9-10.1-7
		c-2.7-7.2-8.3-12.3-17.2-12.3c-9,0-14.9,5.1-14.9,13.4c0,10.3,9.9,12.8,21.3,15.7c15.2,3.9,33.2,8.4,33.2,33.2
		C484.7,453.5,469.1,467.6,445.2,467.6L445.2,467.6z"/>
	<path class="st6" d="M513.2,467.6c-6.7,0-10.4-3.8-10.4-10.7v-99.7c0-7,3.7-10.7,10.4-10.7h2.2c6.7,0,10.4,3.8,10.4,10.7v39.7h30.7
		v-39.7c0-7,3.7-10.7,10.4-10.7h2.2c6.7,0,10.4,3.8,10.4,10.7v99.7c0,7-3.7,10.7-10.4,10.7h-2.2c-6.7,0-10.4-3.8-10.4-10.7v-39.4
		h-30.7v39.4c0,7-3.7,10.7-10.4,10.7H513.2z"/>
</g>
</svg>
