<?xml version="1.0" standalone="no"?>
<!DOCTYPE svg PUBLIC "-//W3C//DTD SVG 20010904//EN"
 "http://www.w3.org/TR/2001/REC-SVG-20010904/DTD/svg10.dtd">
<svg version="1.0" xmlns="http://www.w3.org/2000/svg"
 width="700.000000pt" height="700.000000pt" viewBox="0 0 700.000000 700.000000"
 preserveAspectRatio="xMidYMid meet">
<metadata>
Created by potrace 1.14, written by Peter Selinger 2001-2017
</metadata>
<g transform="translate(0.000000,700.000000) scale(0.100000,-0.100000)"
fill="#000000" stroke="none">
<path d="M3025 6350 c-133 -4 -155 -8 -190 -28 -65 -37 -90 -83 -92 -166 -1
-93 14 -148 67 -236 35 -58 44 -82 46 -128 5 -112 -51 -201 -180 -283 -184
-117 -217 -141 -280 -200 -118 -110 -212 -250 -268 -396 -26 -68 -23 -58 -41
-158 -19 -104 -20 -125 -22 -1705 -1 -1434 -2 -1398 47 -1545 94 -282 323
-487 618 -552 83 -18 221 -22 780 -21 713 1 738 3 886 63 289 116 474 339 520
625 2 14 7 36 10 50 4 14 6 703 5 1532 -1 1593 0 1557 -46 1691 -47 140 -143
288 -260 402 -71 70 -105 95 -224 167 -177 107 -242 183 -256 301 -7 56 15
123 60 186 43 60 56 93 60 160 6 103 -34 184 -110 221 -43 21 -55 21 -512 23
-257 1 -535 0 -618 -3z"/>
</g>
</svg>
